<?xml version="1.0" encoding="UTF-8"?>
<svg id="Layer_1" data-name="Layer 1" xmlns="http://www.w3.org/2000/svg" viewBox="0 0 432.3 332.23">
  <defs>
    <style>
      .cls-1 {
        fill: #2F5D40;
        fill-rule: evenodd;
      }
    </style>
  </defs>
  <path id="Path_0" data-name="Path 0" class="cls-1" d="M95.3.56l22,22h198L337.7.06c10.32-.18,48.47-.09,49.6,2.5,3.85-.11,1.99,1.93,5.5,2,7.46.83,13.71,6.59,19,12,5.7,5.65,13.76,13.58,14.5,21.8-.17,2.93,2.08,1.43,2,4.2,0,1.1.3,2,.8,2,3.16,8.2,2.99,10.69,3.2,25.3,0,15.1-.1,16.3-2,17.7-2.85,2.09-1.54,3.05-3.2,6.2-1.08,3.22-2.57,1.92-2.8,4.5.2,1.96-5.89,6.78-6,8.3-5.4,7.79-12.97,13.51-22.1,18.5l.1,122.5-83.5,83.4c-56.16.72-142.9,2.52-190-.1-3.6-.6-7.7-4.4-88.5-85.3v-121c-6.76.68-4.49-2.55-8.5-4-.8,0-1.5-.6-1.5-1.3-1.09-2.96-4.95-4.46-7.8-7.7-3.18-2.3-7.22-11.02-9.4-13-.5,0-.8-.9-.8-2-.1-2.89-2.2-1.32-2-5,0-1.7-.3-3-.7-3C-.82,86.66-.59,47.78,1.2,44.76c1.43-.06.75-4.17,2.1-4.2,1.29.08.71-4.08,2-4,.5,0,1-.8,1-1.8-.21-2.04,3.98-4.18,4-6-.1-1.44,4.1-5.47,4-7,.17-1.72,2.14-.76,2-3-.59-1.95,5.98-4.2,6-5.5,0-.4.6-.7,1.3-.7,1.81-.02,7.16-5.34,9-5.5,2.3-.66,1.04-2.58,3.7-2.5,1.1,0,2-.5,2-1,.3-1.51,6.9-.65,7.5-2C55.73-.2,81.01.11,95.3.56h0ZM58.3,26.56c-1.42-.13-9.38,1.8-10,3.2,0,.5-.6.8-1.2.8-1.69-.02-5.55,4.18-7.3,4-1.87-.24-1.17,3.76-2.2,4-1.06-.38-3.53,6.3-4.5,6-.5,0-.8.6-.8,1.2-2.22,7.83-4.99,8.61-3.7,21.8.96,8.35-.26,13.72,2.7,17,.5,0,1,.7,1,1.5s1.8,3.3,4,5.5c3.61,4.23,6.14,3.39,8.3,7,.56,2.37,3.04,1.54,3.7,2.7-.1.5,1.4,1.5,3.2,2.3,3.14,1.29,6.59,4.87,8.9,7.5l-.1,53.5h22c0-27.7-.2-30-1.5-30-2.28-.26-2.69-3.69-4.6-5-1-.8-1.8-2.7-1.9-4.3-.26-4.27-2.27-1.26-2-8.7,0-3.3.4-6,1-6s1-.7,1-1.5c-.18-1.75,4.02-5.61,4-7.3-.12-1.58,4.03-.8,4-2.2-.08-1.43,4.08-.57,4-2,1.96-1.93,13.25-.65,16,.2,2.2.7,4,1.6,4,2,0,.5.7.8,1.5.8,2.36.29,1.22,2.42,3.8,4.2,3.79,3.93,6.28,13.63,3.7,18.3-.6.3-1,2-1,3.7.16,5.74-5.99,7.92-10.1,10.3.1,44.5-.1,48.7-1.4,50,.89,1.99-34.71,1.79-42,2l-.5,46.5,71,71h73c.28-15.52-.71-10.61-6-15.3,0-.4-.7-.7-1.5-.7-2.05-.07-5.74-2.31-7.2-3.8-1-1.29-4.93-1.6-5.3-3.2.08-1.44-4.08-.57-4-2,.08-1.43-4.08-.57-4-2-6.74-4.05-7.84-2.69-8.3-16.5-.3-6.1-.8-12.7-1.1-14.8-.5-3.2-.3-3.7,1.4-3.7,1.1,0,2,.3,2,.7,4.01,3.68,12.24,7.28,16.9,10.4,11.11,9.55,32.13,19.35,45.1,7.9,0-.6,1.4-1,3-1,3.77.2,2.21-1.72,4.3-2,1.25.23,5.35-3.94,6.5-4,2.2-1.02,4.17-3.78,7.7-5,3.56-1.18,7.33-5.81,9.8-7,.92,1.17.68,23.77.7,29-6.41,7.05-8.55,6.71-12,10.2.04,1.15-4.08.52-4.2,1.5-.6,1.27-9.01,5.47-10.3,5.3-2.34.24-1.18,1.84-4.5,2.7-4.39.39-2.69,9.17-3,13.3,62.19-1.01,67.74,1.82,72-2.8,13.28-10.16,50.66-49.69,70-68.2,3.68-164.84-13.83-101.92,28-149.5.03-2.13,2.21-.95,2-3.5-.01-2.83,2.21-2.36,2-5.5,0-1.4.4-2.5,1-2.5,1.28.99,1.3-20.99,0-20-.6,0-1-.9-1-2,.01-2.88-1.66-1.31-1.7-4.5.11-2.47-4.88-6.67-5.3-8.5.03-1.16-5.74-7.15-7-7-1.73-.45-.31-2.16-3.5-2-1.4,0-2.5-.3-2.5-.8-1.6-1.96-8.99-3.23-12-3.2-2.2,0-4-.5-4-1,.66-1.28-16.66-1.3-16,0,0,.5-.7,1-1.5,1-1.54-.48-14.59,12.86-14.5,14,.03,1.54-2.79,4.08-4.4,4-14.22,3.79-53.71,2.59-69.6,3v31h73l17,17c1.6,86.42-3.77,80.69,5.4,90.8,3.42,2.36,3.82,13.48,1.8,15.9-.7.2-1.2,1.2-1.2,2.3.36,2.47-3.78,2.42-4,4.2-1.11,3.15-6.37,3.71-10.2,3.8-9.5.23-15.62-7.33-17.1-15.9-2.01-5.5,1.76-2.32,1.3-8.1,1.92-8.33,2.05-11.95,2-45,0,0,0-41,0-41-107.38-3.84-87.83,17.72-90-55l-10.5.5-.5,86.5c5,4.7,7.1,6.1,7.8,6,.6,0,1.2.4,1.2,1s.9,1,2,1c2.62-.22,1.43,2.13,3,1.5,1.6-.61,3.81,2.76,5.5,2.5.8,0,1.5.4,1.5,1s.8,1,1.8,1c.9,0,2.4.9,3.2,2,1.89,2.71,4.11,1.29,6,4,1.8,2.59,3.44,1.42,5.5,3.5,1.3,1.3,1.5,6.1,1.5,30.5s-.3,29.3-1.4,30.5c-.8.8-2.1,1.5-2.8,1.5-1.83.02-3.96,4.22-6,4-2.42-.14-1.18,2.09-3.5,2-2.25-.19-4.23,4.02-6.3,4-1.94-.11-4.06,4.11-6,4-.8,0-2.2.9-3,2-1.9,2.7-4.1,1.3-6,4-1.18,2.32-4.43,1.42-5,3,.08,1.43-4.08.57-4,2,0,.6-.9,1-2,1-2.72-.13-1.28,2.13-4,2-1.1,0-2.2.6-2.4,1.2-.57,1.94-4.44-3.84-5.8-3.2-2.41.14-1.18-2.09-3.5-2-2.11.26-4.25-3.91-6-4-1.54.11-5.55-4.11-7-4-.7,0-1.3-.4-1.3-1,.08-1.44-4.08-.56-4-2,0-.6-.8-1-1.7-1-1,0-2.5-.9-3.3-2-1.13-2.32-4.42-1.4-5-3,0-.6-.8-1-1.7-1-2.11.26-4.25-3.91-6-4-1.44.05-4.93-3.6-6.3-5,1.76-60.2-5.23-57.77,10-63.8-.17-.85,10.3-5.55,10-6.5-.04-1,4.11-.37,4-1.5-.17-.85,10.3-5.55,10-6.5,0-.4.7-.7,1.5-.7,1.78.07,5-3.5,6.5-5-.44-66.1.26-73.57-1.5-85.5l-40.5-.5c-.19,18.52.65,12.05,4,19.2,0,1,.4,1.8,1,1.8,1.44-.04.56,3.04,2,3,1.47.06.63,6.22,2,6.5,4.46,9-5.2,21.53-14.5,22.5-3.77.15-1.51,2.28-6.5,2-5.05.27-2.65-1.95-7-2-3.78.24-2.12-1.74-4.5-2-.8,0-1.5-.4-1.5-1-5.57-3.61-8.49-8.79-9-16.5,0-2.5.4-4.7,1-5,1.61-1.57.72-4.77,3-6.8,1.1-1.2,2-2.8,2-3.5,0-.6.3-1.1.8-1,6.99-.47,4.91-9.84,5.2-16.2-57.43.26-30.79,1.03-56.5-18-.8,0-1.5-.7-1.5-1.5.1-2.07-1.82-.06-2-1.5.1-1.38-6.18-.69-6.2-2,.68-1.26-16.46-.85-16,.2.1.4-.7.8-1.8.8ZM192.4,172.56c-5.06-.88-3.1,4.71-5.6,6-1.28.07,2.07,2.9,1.5,3.7-.33,1.34,12.26,13.23,12,14.5.2,1.79,9.89,10.36,10.3,12,1.63,3.15,9.23,2.02,11.5-1,2.07-2.77,5.16-2.98,6.2-5.2-.15-1.17,11.8-13.21,11.9-14.3.54-1.66,6.35-6.39,6.1-8.7-.07-1.99-.17-4.8-2.5-5-.8,0-1.5-.4-1.5-1-.05-1.45-9.3-.63-9.5-2-1.45-1.99-40.21-.01-40.4,1h0ZM69.6,46.66c8.77,1.13,9.1,4.71,14,9.9.4,0,.7,3.4.7,7.5,0,7.2-.1,7.6-3.5,11-2.1,2.2-4.4,3.5-6,3.5-1.4,0-2.5.4-2.5,1-5.72,3.07-18.33-.31-20-7.5,0-.8-.4-1.5-1-1.5s-1-2.8-1-6.5c-1.12-12.35,10.56-15.11,19.3-17.4h0ZM367.3,46.56c3.65-.17,2.12,1.75,4.8,2,5.21,2.33,8.93,6.02,8.1,14.3.13,8.23-1.61,12.58-7.9,14.6-1.36,1.36-5.22,3.21-7.5,3.1-3.43.13-1.57-2.13-5-2-2.63.22-7.37-4.16-7.5-6.5,0-.8-.3-1.5-.7-1.5-1.21-.07-4.09-10.29-2.4-10.5,3.74-9.97,5.91-10.02,15.1-12.8,0-.4,1.4-.7,3-.7ZM153.8,112.56c5.68.02,8.46.91,12,4.2,3.21,2.65,3.78,1.04,5.8,5.8,2.35,5.21,1.6,16.23-2.5,20-1.37.46-.12,4.47-2.8,4-1.1,0-2,.4-2,1s-3.8,1-19,1c-2.26-2.22-7.21-6.83-7-9.5,0-1.4-.4-2.5-1-2.5-1.67-1.07-.91-11.8.3-13.2,1.02-2.12,6.7-8.59,9.2-8.8.8,0,1.5-.4,1.5-1s2.5-1,5.5-1ZM280.6,112.66c4.52-.46,2.54,1.8,6.2,1.9,3.17-.18,1.82,1.61,3.5,2,1.98.3,6.28,5.09,6,7.5,0,1.4.5,2.5,1,2.5,1.96,1.91.65,11.62-.3,14.3-1.35,4.52-2.16,3.01-5.3,5.4-27.14,19.58-44.72-30.61-11.1-33.6ZM116.3,162.56h22v82.5c10.39,5.98,6.17,8.65,9,17,1.53,1-1.41,4.72-1,6.3.1.9-.9,2.6-2,3.7-2.54,1.89-.96,4.25-4,4.5-2.96.14-1.29,2.23-5.2,2.4-5.39,1.37-11.46,1.99-16-1.5-3.23-.66-8.17-3.85-8.8-7.4,0-.8-.4-1.5-1-1.5-2.52-8.54-.79-15.43,7-23.5v-82.5ZM294.3,162.56h21.5c1.29,23.79.91,23.72,0,82.8,1.54,1.28,4.41,3.62,4.5,5.5,0,.9.4,1.7,1,1.7,2.08,2.35,2.57,11.41.1,14.5-4.93,7.24-5.08,9.9-17.1,9.5-10.42.24-16-1.46-18-10.5,0-.8-.5-1.5-1-1.5-3.05-6.94-.54-17.37,7.5-20,2.36,6.87,1.26-70.32,1.5-82Z"/>
</svg>